<?xml version="1.0" encoding="UTF-8"?>
<svg version="1.1" xmlns="http://www.w3.org/2000/svg" width="60" height="61">
<path d="M0 0 C19.8 0 39.6 0 60 0 C60 20.13 60 40.26 60 61 C40.2 61 20.4 61 0 61 C0 40.87 0 20.74 0 0 Z " fill="#FCFCFC" transform="translate(0,0)"/>
<path d="M0 0 C0.66 0 1.32 0 2 0 C4.97 6.6 7.94 13.2 11 20 C13.07376003 17.23498662 14.5656146 15.11252114 16.04296875 12.109375 C16.56987305 11.04589844 16.56987305 11.04589844 17.10742188 9.9609375 C17.46384766 9.23132812 17.82027344 8.50171875 18.1875 7.75 C18.73954102 6.63238281 18.73954102 6.63238281 19.30273438 5.4921875 C20.2054758 3.66325683 21.1032362 1.83186904 22 0 C25.76664443 4.36322476 27.67367547 9.79814832 29.86328125 15.06445312 C30.79874071 17.1701469 31.68937986 19.10413801 33 21 C35.618318 22.15338505 35.618318 22.15338505 38 22 C38.52756492 29.38590889 37.0808643 34.08107676 32.4921875 39.91796875 C26.55149616 46.39746698 20.33229888 49.17089911 11.5625 49.5625 C3.01612478 49.25335457 -3.11819165 46.36951877 -8.9375 40.125 C-13.52702757 34.35561747 -15.46215409 29.54851678 -15 22 C-13.84528198 21.89764038 -13.84528198 21.89764038 -12.66723633 21.79321289 C-9.86959416 21.25504308 -9.86959416 21.25504308 -8.5144043 18.95874023 C-7.92526245 17.64691772 -7.92526245 17.64691772 -7.32421875 16.30859375 C-6.88916016 15.36435547 -6.45410156 14.42011719 -6.00585938 13.44726562 C-5.35327148 11.95743164 -5.35327148 11.95743164 -4.6875 10.4375 C-4.23310547 9.44041016 -3.77871094 8.44332031 -3.31054688 7.41601562 C-2.19011059 4.9510558 -1.08763913 2.47956391 0 0 Z " fill="#0549A9" transform="translate(18,8)"/>
<path d="M0 0 C5.51372015 3.66775244 9.3794224 8.53677835 11.671875 14.77734375 C11.89420679 17.49967295 11.81358941 20.03753177 11.671875 22.77734375 C10.021875 22.77734375 8.371875 22.77734375 6.671875 22.77734375 C6.12917969 21.68035156 5.58648437 20.58335938 5.02734375 19.453125 C4.3047953 17.99864436 3.58213304 16.54422025 2.859375 15.08984375 C2.50294922 14.36861328 2.14652344 13.64738281 1.77929688 12.90429688 C1.42802734 12.19853516 1.07675781 11.49277344 0.71484375 10.765625 C0.39539795 10.12149658 0.07595215 9.47736816 -0.25317383 8.8137207 C-1.51845184 6.41679045 -2.93364188 4.10148228 -4.328125 1.77734375 C-7.298125 8.04734375 -10.268125 14.31734375 -13.328125 20.77734375 C-14.318125 20.77734375 -15.308125 20.77734375 -16.328125 20.77734375 C-17.67090232 18.01099035 -19.00067728 15.23858164 -20.328125 12.46484375 C-20.7096875 11.67916016 -21.09125 10.89347656 -21.484375 10.08398438 C-21.8453125 9.32666016 -22.20625 8.56933594 -22.578125 7.7890625 C-22.91328125 7.09256592 -23.2484375 6.39606934 -23.59375 5.6784668 C-24.328125 3.77734375 -24.328125 3.77734375 -24.328125 0.77734375 C-24.988125 0.77734375 -25.648125 0.77734375 -26.328125 0.77734375 C-26.67875 1.99421875 -27.029375 3.21109375 -27.390625 4.46484375 C-29.53410396 10.97852252 -32.97176078 16.82784335 -36.328125 22.77734375 C-37.978125 22.77734375 -39.628125 22.77734375 -41.328125 22.77734375 C-41.91581236 15.72509539 -40.03093616 11.12687722 -35.59765625 5.6328125 C-25.25001572 -5.499679 -13.3408836 -7.34439836 0 0 Z " fill="#F9D412" transform="translate(44.328125,7.22265625)"/>
<path d="M0 0 C0.66 0 1.32 0 2 0 C3.17133058 2.45620851 4.33721722 4.91474917 5.5 7.375 C5.83386719 8.07367188 6.16773438 8.77234375 6.51171875 9.4921875 C9 14.7734375 9 14.7734375 9 17 C3.72 17 -1.56 17 -7 17 C-5.11994266 10.98381653 -2.93937169 5.57467045 0 0 Z " fill="#FDD91A" transform="translate(18,13)"/>
<path d="M0 0 C3.33890438 2.69719302 4.61763236 6.32453746 6.1875 10.1875 C7.115625 12.435625 8.04375 14.68375 9 17 C3.39 17 -2.22 17 -8 17 C-6.85700498 14.35290709 -5.71075628 11.70730948 -4.5625 9.0625 C-4.23701172 8.30775391 -3.91152344 7.55300781 -3.57617188 6.77539062 C-1.11328125 1.11328125 -1.11328125 1.11328125 0 0 Z " fill="#FDD714" transform="translate(40,13)"/>
<path d="M0 0 C2.77585605 3.41841532 4.77483662 7.14875034 6.75 11.0625 C7.07871094 11.68705078 7.40742187 12.31160156 7.74609375 12.95507812 C8.57749772 14.59859188 9.29674412 16.29770708 10 18 C9.67 18.99 9.34 19.98 9 21 C6.51372483 17.9377256 4.90010596 14.8542946 3.3125 11.25 C2.87550781 10.26515625 2.43851563 9.2803125 1.98828125 8.265625 C1.66214844 7.51796875 1.33601563 6.7703125 1 6 C-1.59037598 9.20490963 -3.37943156 12.55350453 -5.1875 16.25 C-5.98220703 17.86648437 -5.98220703 17.86648437 -6.79296875 19.515625 C-7.19128906 20.33546875 -7.58960938 21.1553125 -8 22 C-8.99 21.67 -9.98 21.34 -11 21 C-10.60675537 20.2589502 -10.60675537 20.2589502 -10.20556641 19.50292969 C-9.01155584 17.25221185 -7.81827126 15.00110988 -6.625 12.75 C-6.2125 11.97269531 -5.8 11.19539063 -5.375 10.39453125 C-4.97539063 9.64042969 -4.57578125 8.88632812 -4.1640625 8.109375 C-3.79748535 7.41811523 -3.4309082 6.72685547 -3.05322266 6.01464844 C-2.01113969 4.02130846 -0.99957057 2.01494463 0 0 Z " fill="#11469B" transform="translate(40,8)"/>
<path d="M0 0 C0.66 0 1.32 0 2 0 C4.64 5.94 7.28 11.88 10 18 C9.34 18.66 8.68 19.32 8 20 C6.99539469 17.87717331 5.99644398 15.75166979 5 13.625 C4.443125 12.44164062 3.88625 11.25828125 3.3125 10.0390625 C2 7 2 7 2 5 C1.34 5 0.68 5 0 5 C-0.2475 5.804375 -0.495 6.60875 -0.75 7.4375 C-2.26078647 11.74324143 -4.10188856 15.85364007 -6 20 C-6.66 19.67 -7.32 19.34 -8 19 C-6.60121198 14.53202662 -4.86369228 10.36177921 -2.875 6.125 C-2.33617187 4.97257813 -1.79734375 3.82015625 -1.2421875 2.6328125 C-0.62730469 1.32957031 -0.62730469 1.32957031 0 0 Z " fill="#194B97" transform="translate(18,8)"/>
<path d="M0 0 C3.17195264 3.17195264 4.53974351 6.13117107 6.1875 10.1875 C6.46013672 10.84169922 6.73277344 11.49589844 7.01367188 12.16992188 C7.68239798 13.77721092 8.34209925 15.38824962 9 17 C8.01 17 7.02 17 6 17 C4.35 13.37 2.7 9.74 1 6 C-1.14799887 8.8639985 -2.42041356 10.61245262 -3.6875 13.75 C-4.120625 14.8225 -4.55375 15.895 -5 17 C-5.99 16.67 -6.98 16.34 -8 16 C-5.36 10.72 -2.72 5.44 0 0 Z " fill="#E5EBE8" transform="translate(40,13)"/>
<path d="M0 0 C0.66 0 1.32 0 2 0 C3.17133058 2.45620851 4.33721722 4.91474917 5.5 7.375 C5.83386719 8.07367188 6.16773438 8.77234375 6.51171875 9.4921875 C9 14.7734375 9 14.7734375 9 17 C8.34 17 7.68 17 7 17 C6.16180842 15.37750059 5.3295884 13.75191503 4.5 12.125 C4.0359375 11.22007813 3.571875 10.31515625 3.09375 9.3828125 C2 7 2 7 2 5 C1.34 5 0.68 5 0 5 C-0.268125 5.86625 -0.53625 6.7325 -0.8125 7.625 C-1.97111987 10.91791964 -3.38209839 13.91127875 -5 17 C-5.66 17 -6.32 17 -7 17 C-5.1668733 11.00067626 -2.92678249 5.55079437 0 0 Z " fill="#E2E8EB" transform="translate(18,13)"/>
<path d="M0 0 C2.64465038 3.1254959 3.84414715 6.08788267 5 10 C4.01 10.495 4.01 10.495 3 11 C0.84694043 7.14243493 -0.39253254 4.44870215 0 0 Z " fill="#235295" transform="translate(45,18)"/>
<path d="M0 0 C0.66 0.99 1.32 1.98 2 3 C0.515 5.475 0.515 5.475 -1 8 C-1.99 7.67 -2.98 7.34 -4 7 C-2.68 4.69 -1.36 2.38 0 0 Z " fill="#2F5A90" transform="translate(33,22)"/>
<path d="M0 0 C2.72426311 2.35277269 3.8141763 4.62496331 5 8 C4.01 8 3.02 8 2 8 C0.23537317 4.91190305 0 3.76687864 0 0 Z " fill="#EEF1E6" transform="translate(44,22)"/>
<path d="M0 0 C2.79872437 2.52788007 4.45773019 4.20411134 5 8 C4.34 8 3.68 8 3 8 C0.95830515 5.09451118 0 3.59857954 0 0 Z " fill="#EDF0EB" transform="translate(22,22)"/>
</svg>
